<?xml version="1.0" encoding="iso-8859-1"?>
<!-- Generator: Adobe Illustrator 16.0.0, SVG Export Plug-In . SVG Version: 6.00 Build 0)  -->
<!DOCTYPE svg PUBLIC "-//W3C//DTD SVG 1.1//EN" "http://www.w3.org/Graphics/SVG/1.1/DTD/svg11.dtd">
<svg version="1.1" id="Capa_1" xmlns="http://www.w3.org/2000/svg" xmlns:xlink="http://www.w3.org/1999/xlink" x="0px" y="0px"
	 width="361.102px" height="361.101px" viewBox="0 0 361.102 361.101" style="enable-background:new 0 0 361.102 361.101;"
	 xml:space="preserve">
<g>
	<g>
		<path d="M91.392,257.378c-19.557,0-35.404,15.842-35.404,35.398c0,19.558,15.848,35.399,35.404,35.399
			c19.562,0,35.405-15.842,35.405-35.399C126.797,273.22,110.954,257.378,91.392,257.378z M91.392,308.167
			c-8.502,0-15.39-6.889-15.39-15.391c0-8.506,6.888-15.39,15.39-15.39c8.501,0,15.394,6.884,15.394,15.39
			C106.786,301.279,99.893,308.167,91.392,308.167z"/>
		<path d="M249.517,257.378c-19.557,0-35.403,15.842-35.403,35.398c0,19.558,15.848,35.399,35.403,35.399
			c19.562,0,35.405-15.842,35.405-35.399C284.922,273.22,269.079,257.378,249.517,257.378z M249.517,308.167
			c-8.502,0-15.39-6.889-15.39-15.391c0-8.506,6.888-15.39,15.39-15.39c8.501,0,15.395,6.884,15.395,15.39
			C264.911,301.279,258.018,308.167,249.517,308.167z"/>
		<path fill="blue" d="M315.875,194.26c-15.419-4.009-28.603-16.337-34.657-28.03l-21.335-40.989c-6.057-11.693-21.784-21.261-34.952-21.261
			H99.779c-13.168,0-27.409,10.201-31.644,22.669L55.068,165.11c-1.287,5.084-9.761,30.458-27.442,30.458
			C14.457,195.568,0,212.92,0,226.087v45.49c0,13.17,10.773,23.943,23.942,23.943h24.633c-0.058-0.908-0.097-1.82-0.097-2.742
			c0-23.662,19.251-42.91,42.914-42.91c23.664,0,42.916,19.248,42.916,42.91c0,0.922-0.039,1.834-0.097,2.742h72.486
			c-0.057-0.908-0.097-1.82-0.097-2.742c0-23.662,19.251-42.91,42.914-42.91c23.664,0,42.916,19.248,42.916,42.91
			c0,0.922-0.039,1.834-0.097,2.742h44.825c13.17,0,23.942-10.773,23.942-23.943v-35.683
			C361.104,197.587,328.675,197.587,315.875,194.26z M63.208,188.545c3.789-5.898,5.85-12.327,6.394-14.475l11.055-32.537
			c3.582-10.548,15.63-19.178,26.77-19.178h24.821v66.189L63.208,188.545L63.208,188.545z M223.726,221.46l-6.896,6.721
			c-2.045,1.993-3.322,5.926-2.84,8.739l1.627,9.489c0.482,2.813-1.189,4.029-3.717,2.701l-8.521-4.48
			c-2.527-1.328-6.662-1.328-9.189,0l-8.521,4.48c-2.527,1.328-4.2,0.112-3.718-2.701l1.627-9.489
			c0.482-2.813-0.795-6.746-2.839-8.739l-6.896-6.721c-2.044-1.993-1.405-3.959,1.421-4.37l9.527-1.384
			c2.826-0.411,6.171-2.842,7.435-5.401l4.263-8.634c1.264-2.561,3.33-2.561,4.594,0l4.262,8.634
			c1.264,2.562,4.607,4.99,7.436,5.401l9.527,1.384C225.132,217.501,225.77,219.467,223.726,221.46z M156.046,188.545v-66.189
			h57.256c11.14,0,24.444,8.095,29.568,17.986l18.049,34.677c2.412,4.655,6.171,9.422,10.822,13.526H156.046z"/>
		<path fill="red" d="M184.376,73.452c-4.404-4.519-11.951-7.501-20.529-7.501c-8.301,0-15.635,2.793-20.09,7.068
			c-2.984,2.33-4.951,6.291-4.951,10.787c0,7.172,5,12.985,11.166,12.985h27.684c6.168,0,11.167-5.813,11.167-12.985
			C188.82,79.572,187.07,75.823,184.376,73.452z"/>
		<path d="M164.272,61.061c1.527,0,2.762-1.217,2.762-2.718V35.644c0-1.501-1.234-2.719-2.762-2.719
			c-1.523,0-2.762,1.218-2.762,2.719v22.699C161.51,59.844,162.749,61.061,164.272,61.061z"/>
		<path d="M189.445,72.634c1.078,1.063,2.828,1.062,3.906,0l18.346-14.05c1.078-1.062,1.078-2.781,0-3.844
			c-1.078-1.061-2.828-1.062-3.905,0l-18.347,14.05C188.367,69.852,188.367,71.573,189.445,72.634z"/>
		<path d="M191.958,81.648c0,1.501,1.235,2.718,2.764,2.718l18.664-0.001c1.522,0,2.761-1.216,2.761-2.717
			c0-1.5-1.236-2.719-2.761-2.718l-18.666-0.001C193.193,78.93,191.958,80.148,191.958,81.648z"/>
		<path d="M114.245,84.365l18.666-0.001c1.523,0,2.76-1.216,2.762-2.717c0-1.5-1.236-2.719-2.762-2.718l-18.668-0.001
			c-1.523,0.001-2.762,1.219-2.762,2.719C111.481,83.149,112.718,84.365,114.245,84.365z"/>
		<path d="M135.194,72.634c1.078,1.062,2.828,1.062,3.906,0c1.08-1.061,1.078-2.782,0-3.845L120.756,54.74
			c-1.076-1.061-2.826-1.061-3.906,0c-1.078,1.062-1.078,2.782,0,3.844L135.194,72.634z"/>
		<path d="M179.028,63.174c1.447,0.477,3.011-0.291,3.496-1.715l7.32-18.277c0.484-1.424-0.295-2.964-1.742-3.44
			c-1.445-0.477-3.01,0.291-3.494,1.715l-7.324,18.277C176.8,61.157,177.581,62.697,179.028,63.174z"/>
		<path d="M146.022,61.459c0.484,1.424,2.049,2.191,3.494,1.715c1.447-0.477,2.229-2.017,1.744-3.44l-7.322-17.194
			c-0.484-1.424-2.049-2.191-3.496-1.715c-1.445,0.477-2.227,2.017-1.742,3.439L146.022,61.459z"/>
	</g>
</g>
<g>
</g>
<g>
</g>
<g>
</g>
<g>
</g>
<g>
</g>
<g>
</g>
<g>
</g>
<g>
</g>
<g>
</g>
<g>
</g>
<g>
</g>
<g>
</g>
<g>
</g>
<g>
</g>
<g>
</g>
</svg>
